# xmcd
# 
# Track frame offsets:
#     150
#     20776
#     37949
#     56016
#     74298
#     98164
#     114626
#     137550
#     156855
#     174158
#     193934
#     211241
#     230704
# 
# Disc length: 3309
# 
# Revision: 1
# Processed by: cddbd v1.5.2PL0 Copyright (c) Steve Scherf et al.
# Submitted via: fre:ac v1.0.31
# 
DISCID=b50ceb0d
DTITLE=Ilse deLange - The Great Escape
DYEAR=2006
DGENRE=Pop
TTITLE0=Reach For The Light
TTITLE1=The Lonely One
TTITLE2=The Great Escape
TTITLE3=Was It Love
TTITLE4=I Always Will
TTITLE5=Miss Politician
TTITLE6=Don't You Let Go Of Me
TTITLE7=Carry Hope
TTITLE8=Waterfall
TTITLE9=Far Away
TTITLE10=I Love You
TTITLE11=The Valley
TTITLE12=When
EXTD=
EXTT0=
EXTT1=
EXTT2=
EXTT3=
EXTT4=
EXTT5=
EXTT6=
EXTT7=
EXTT8=
EXTT9=
EXTT10=
EXTT11=
EXTT12=
PLAYORDER=
